<svg width="40" height="41" viewBox="0 0 40 41" fill="none" xmlns="http://www.w3.org/2000/svg">
<g id="mdi-light:television">
<path id="Vector" d="M13.3333 35.6666V33.9999H15V32.3333H6.66666C5.34057 32.3333 4.0688 31.8065 3.13112 30.8688C2.19344 29.9311 1.66666 28.6593 1.66666 27.3333V12.3333C1.66666 11.0072 2.19344 9.7354 3.13112 8.79772C4.0688 7.86004 5.34057 7.33325 6.66666 7.33325H31.6667C32.9927 7.33325 34.2645 7.86004 35.2022 8.79772C36.1399 9.7354 36.6667 11.0072 36.6667 12.3333V27.3333C36.6667 28.6593 36.1399 29.9311 35.2022 30.8688C34.2645 31.8065 32.9927 32.3333 31.6667 32.3333H23.3333V33.9999H25V35.6666H13.3333ZM16.6667 32.3333V33.9999H21.6667V32.3333H16.6667ZM6.66666 8.99992C5.7826 8.99992 4.93475 9.35111 4.30963 9.97623C3.68451 10.6014 3.33332 11.4492 3.33332 12.3333V27.3333C3.33332 28.2173 3.68451 29.0652 4.30963 29.6903C4.93475 30.3154 5.7826 30.6666 6.66666 30.6666H31.6667C32.5507 30.6666 33.3986 30.3154 34.0237 29.6903C34.6488 29.0652 35 28.2173 35 27.3333V12.3333C35 11.4492 34.6488 10.6014 34.0237 9.97623C33.3986 9.35111 32.5507 8.99992 31.6667 8.99992H6.66666Z" fill="#C23366"/>
</g>
</svg>
