<svg width="206" height="46" viewBox="0 0 206 46" fill="none" xmlns="http://www.w3.org/2000/svg">
<path d="M1.008 18V5.04H3.474L11.79 14.94V5.04H13.968V18H11.502L3.168 8.082V18H1.008ZM20.9187 18C20.4747 18 20.0727 17.892 19.7127 17.676C19.3527 17.448 19.0587 17.154 18.8307 16.794C18.6147 16.434 18.5067 16.032 18.5067 15.588V9.972C18.5067 9.528 18.6147 9.126 18.8307 8.766C19.0587 8.406 19.3527 8.118 19.7127 7.902C20.0727 7.674 20.4747 7.56 20.9187 7.56H26.6967C27.1527 7.56 27.5607 7.674 27.9207 7.902C28.2807 8.118 28.5687 8.406 28.7847 8.766C29.0007 9.126 29.1087 9.528 29.1087 9.972V13.86H20.6487V15.516C20.6487 15.612 20.6787 15.696 20.7387 15.768C20.8107 15.828 20.8947 15.858 20.9907 15.858H29.1087V18H20.9187ZM20.6487 11.898H26.9667V10.044C26.9667 9.948 26.9307 9.87 26.8587 9.81C26.7987 9.738 26.7207 9.702 26.6247 9.702H20.9907C20.8947 9.702 20.8107 9.738 20.7387 9.81C20.6787 9.87 20.6487 9.948 20.6487 10.044V11.898ZM33.2456 18V17.514L37.2056 12.69L33.2456 8.046V7.56H35.6576L38.6096 11.034L41.5436 7.56H43.9556V8.046L39.9956 12.69L43.9736 17.514V18H41.5616L38.6096 14.382L35.6576 18H33.2456ZM50.7531 18C50.3091 18 49.9011 17.892 49.5291 17.676C49.1691 17.448 48.8811 17.154 48.6651 16.794C48.4491 16.434 48.3411 16.032 48.3411 15.588V7.56H50.4831V15.516C50.4831 15.612 50.5131 15.696 50.5731 15.768C50.6451 15.828 50.7291 15.858 50.8251 15.858H56.4591C56.5551 15.858 56.6331 15.828 56.6931 15.768C56.7651 15.696 56.8011 15.612 56.8011 15.516V7.56H58.9431V15.588C58.9431 16.032 58.8351 16.434 58.6191 16.794C58.4031 17.154 58.1151 17.448 57.7551 17.676C57.3951 17.892 56.9871 18 56.5311 18H50.7531ZM65.5447 18C65.1007 18 64.6987 17.892 64.3387 17.676C63.9787 17.448 63.6847 17.154 63.4567 16.794C63.2407 16.434 63.1327 16.032 63.1327 15.588V15.246H65.2747V15.516C65.2747 15.612 65.3047 15.696 65.3647 15.768C65.4367 15.828 65.5207 15.858 65.6167 15.858H71.2507C71.3467 15.858 71.4247 15.828 71.4847 15.768C71.5567 15.696 71.5927 15.612 71.5927 15.516V14.184C71.5927 14.1 71.5567 14.028 71.4847 13.968C71.4247 13.896 71.3467 13.86 71.2507 13.86H65.5447C65.1007 13.86 64.6987 13.752 64.3387 13.536C63.9787 13.308 63.6847 13.014 63.4567 12.654C63.2407 12.294 63.1327 11.892 63.1327 11.448V9.972C63.1327 9.528 63.2407 9.126 63.4567 8.766C63.6847 8.406 63.9787 8.118 64.3387 7.902C64.6987 7.674 65.1007 7.56 65.5447 7.56H71.3227C71.7787 7.56 72.1867 7.674 72.5467 7.902C72.9067 8.118 73.1947 8.406 73.4107 8.766C73.6387 9.126 73.7527 9.528 73.7527 9.972V10.314H71.5927V10.044C71.5927 9.948 71.5567 9.87 71.4847 9.81C71.4247 9.738 71.3467 9.702 71.2507 9.702H65.6167C65.5207 9.702 65.4367 9.738 65.3647 9.81C65.3047 9.87 65.2747 9.948 65.2747 10.044V11.376C65.2747 11.46 65.3047 11.538 65.3647 11.61C65.4367 11.67 65.5207 11.7 65.6167 11.7H71.3227C71.7787 11.7 72.1867 11.814 72.5467 12.042C72.9067 12.258 73.1947 12.546 73.4107 12.906C73.6387 13.266 73.7527 13.668 73.7527 14.112V15.588C73.7527 16.032 73.6387 16.434 73.4107 16.794C73.1947 17.154 72.9067 17.448 72.5467 17.676C72.1867 17.892 71.7787 18 71.3227 18H65.5447ZM78.3346 18V5.04H80.4946V10.44H89.4226V5.04H91.5826V18H89.4226V12.6H80.4946V18H78.3346ZM98.6851 18C98.2411 18 97.8331 17.892 97.4611 17.676C97.1011 17.448 96.8131 17.154 96.5971 16.794C96.3811 16.434 96.2731 16.032 96.2731 15.588V7.56H98.4151V15.516C98.4151 15.612 98.4451 15.696 98.5051 15.768C98.5771 15.828 98.6611 15.858 98.7571 15.858H104.391C104.487 15.858 104.565 15.828 104.625 15.768C104.697 15.696 104.733 15.612 104.733 15.516V7.56H106.875V15.588C106.875 16.032 106.767 16.434 106.551 16.794C106.335 17.154 106.047 17.448 105.687 17.676C105.327 17.892 104.919 18 104.463 18H98.6851ZM111.138 18V4.14H113.28V7.56H119.346C119.778 7.56 120.174 7.674 120.534 7.902C120.906 8.118 121.2 8.406 121.416 8.766C121.632 9.126 121.74 9.528 121.74 9.972V15.588C121.74 16.032 121.632 16.434 121.416 16.794C121.2 17.154 120.906 17.448 120.534 17.676C120.174 17.892 119.778 18 119.346 18H111.138ZM113.622 15.858H119.274C119.358 15.858 119.43 15.828 119.49 15.768C119.562 15.696 119.598 15.612 119.598 15.516V10.044C119.598 9.948 119.562 9.87 119.49 9.81C119.43 9.738 119.358 9.702 119.274 9.702H113.622C113.538 9.702 113.46 9.738 113.388 9.81C113.316 9.87 113.28 9.948 113.28 10.044V15.516C113.28 15.612 113.316 15.696 113.388 15.768C113.46 15.828 113.538 15.858 113.622 15.858Z" fill="white"/>
<path d="M144.333 43C144.333 44.4728 145.527 45.6667 147 45.6667C148.473 45.6667 149.667 44.4728 149.667 43C149.667 41.5272 148.473 40.3333 147 40.3333C145.527 40.3333 144.333 41.5272 144.333 43ZM0 43.5H147V42.5H0V43.5Z" fill="#D9D9D9"/>
<path d="M2.893 33.0186L0.385 26.6386H1.782L3.421 30.6316L5.159 26.6386H6.578L8.426 30.6536L9.944 26.6386H11.352L8.943 33.0186H7.909L5.874 28.5196L3.938 33.0186H2.893ZM14.9106 33.0186C14.6393 33.0186 14.3936 32.9526 14.1736 32.8206C13.9536 32.6812 13.7739 32.5016 13.6346 32.2816C13.5026 32.0616 13.4366 31.8159 13.4366 31.5446V28.1126C13.4366 27.8412 13.5026 27.5956 13.6346 27.3756C13.7739 27.1556 13.9536 26.9796 14.1736 26.8476C14.3936 26.7082 14.6393 26.6386 14.9106 26.6386H18.4416C18.7203 26.6386 18.9696 26.7082 19.1896 26.8476C19.4096 26.9796 19.5856 27.1556 19.7176 27.3756C19.8496 27.5956 19.9156 27.8412 19.9156 28.1126V31.5446C19.9156 31.8159 19.8496 32.0616 19.7176 32.2816C19.5856 32.5016 19.4096 32.6812 19.1896 32.8206C18.9696 32.9526 18.7203 33.0186 18.4416 33.0186H14.9106ZM14.9546 31.7096H18.3976C18.4563 31.7096 18.5039 31.6912 18.5406 31.6546C18.5846 31.6106 18.6066 31.5592 18.6066 31.5006V28.1566C18.6066 28.0979 18.5846 28.0502 18.5406 28.0136C18.5039 27.9696 18.4563 27.9476 18.3976 27.9476H14.9546C14.8959 27.9476 14.8446 27.9696 14.8006 28.0136C14.7639 28.0502 14.7456 28.0979 14.7456 28.1566V31.5006C14.7456 31.5592 14.7639 31.6106 14.8006 31.6546C14.8446 31.6912 14.8959 31.7096 14.9546 31.7096ZM22.5097 33.0186V28.1126C22.5097 27.8412 22.5757 27.5956 22.7077 27.3756C22.847 27.1556 23.0267 26.9796 23.2467 26.8476C23.474 26.7082 23.7197 26.6386 23.9837 26.6386H27.5367V27.9476H24.0277C23.969 27.9476 23.9177 27.9696 23.8737 28.0136C23.837 28.0502 23.8187 28.0979 23.8187 28.1566V33.0186H22.5097ZM29.8858 33.0186V24.5486H31.1948V29.1686H32.4818L34.8138 26.6386H36.2658V26.9466L33.6478 29.8286L36.2658 32.7106V33.0186H34.8138L32.4818 30.4886H31.1948V33.0186H29.8858ZM45.0145 33.0186C44.7432 33.0186 44.4975 32.9526 44.2775 32.8206C44.0575 32.6812 43.8778 32.5016 43.7385 32.2816C43.6065 32.0616 43.5405 31.8159 43.5405 31.5446V28.1126C43.5405 27.8412 43.6065 27.5956 43.7385 27.3756C43.8778 27.1556 44.0575 26.9796 44.2775 26.8476C44.4975 26.7082 44.7432 26.6386 45.0145 26.6386H48.5455C48.8242 26.6386 49.0735 26.7082 49.2935 26.8476C49.5135 26.9796 49.6895 27.1556 49.8215 27.3756C49.9535 27.5956 50.0195 27.8412 50.0195 28.1126V31.5446C50.0195 31.8159 49.9535 32.0616 49.8215 32.2816C49.6895 32.5016 49.5135 32.6812 49.2935 32.8206C49.0735 32.9526 48.8242 33.0186 48.5455 33.0186H45.0145ZM45.0585 31.7096H48.5015C48.5602 31.7096 48.6078 31.6912 48.6445 31.6546C48.6885 31.6106 48.7105 31.5592 48.7105 31.5006V28.1566C48.7105 28.0979 48.6885 28.0502 48.6445 28.0136C48.6078 27.9696 48.5602 27.9476 48.5015 27.9476H45.0585C44.9998 27.9476 44.9485 27.9696 44.9045 28.0136C44.8678 28.0502 44.8495 28.0979 44.8495 28.1566V31.5006C44.8495 31.5592 44.8678 31.6106 44.9045 31.6546C44.9485 31.6912 44.9998 31.7096 45.0585 31.7096ZM52.5926 33.0186V26.6386H57.6086C57.8726 26.6386 58.1146 26.7082 58.3346 26.8476C58.562 26.9796 58.7416 27.1556 58.8736 27.3756C59.0056 27.5956 59.0716 27.8412 59.0716 28.1126V33.0186H57.7626V28.1566C57.7626 28.0979 57.7406 28.0502 57.6966 28.0136C57.66 27.9696 57.616 27.9476 57.5646 27.9476H54.1106C54.0593 27.9476 54.0116 27.9696 53.9676 28.0136C53.9236 28.0502 53.9016 28.0979 53.9016 28.1566V33.0186H52.5926ZM68.2912 33.0186C68.0198 33.0186 67.7705 32.9526 67.5432 32.8206C67.3232 32.6812 67.1472 32.5016 67.0152 32.2816C66.8832 32.0616 66.8172 31.8159 66.8172 31.5446V24.6476H68.1262V26.6386H70.6782V27.9476H68.1262V31.5006C68.1262 31.5592 68.1445 31.6106 68.1812 31.6546C68.2252 31.6912 68.2765 31.7096 68.3352 31.7096H70.6782V33.0186H68.2912ZM73.3659 33.0186V24.5486H74.6749V26.6386H78.3819C78.6459 26.6386 78.8879 26.7082 79.1079 26.8476C79.3352 26.9796 79.5149 27.1556 79.6469 27.3756C79.7789 27.5956 79.8449 27.8412 79.8449 28.1126V33.0186H78.5359V28.1566C78.5359 28.0979 78.5139 28.0502 78.4699 28.0136C78.4332 27.9696 78.3892 27.9476 78.3379 27.9476H74.8839C74.8325 27.9476 74.7849 27.9696 74.7409 28.0136C74.6969 28.0502 74.6749 28.0979 74.6749 28.1566V33.0186H73.3659ZM83.7938 33.0186C83.5225 33.0186 83.2768 32.9526 83.0568 32.8206C82.8368 32.6812 82.6571 32.5016 82.5178 32.2816C82.3858 32.0616 82.3198 31.8159 82.3198 31.5446V28.1126C82.3198 27.8412 82.3858 27.5956 82.5178 27.3756C82.6571 27.1556 82.8368 26.9796 83.0568 26.8476C83.2768 26.7082 83.5225 26.6386 83.7938 26.6386H87.3248C87.6035 26.6386 87.8528 26.7082 88.0728 26.8476C88.2928 26.9796 88.4688 27.1556 88.6008 27.3756C88.7328 27.5956 88.7988 27.8412 88.7988 28.1126V30.4886H83.6288V31.5006C83.6288 31.5592 83.6471 31.6106 83.6838 31.6546C83.7278 31.6912 83.7791 31.7096 83.8378 31.7096H88.7988V33.0186H83.7938ZM83.6288 29.2896H87.4898V28.1566C87.4898 28.0979 87.4678 28.0502 87.4238 28.0136C87.3871 27.9696 87.3395 27.9476 87.2808 27.9476H83.8378C83.7791 27.9476 83.7278 27.9696 83.6838 28.0136C83.6471 28.0502 83.6288 28.0979 83.6288 28.1566V29.2896ZM96.5234 33.0186V28.1126C96.5234 27.8412 96.5894 27.5956 96.7214 27.3756C96.8607 27.1556 97.0404 26.9796 97.2604 26.8476C97.4877 26.7082 97.7334 26.6386 97.9974 26.6386H101.55V27.9476H98.0414C97.9827 27.9476 97.9314 27.9696 97.8874 28.0136C97.8507 28.0502 97.8324 28.0979 97.8324 28.1566V33.0186H96.5234ZM105.394 33.0186C105.123 33.0186 104.877 32.9526 104.657 32.8206C104.437 32.6812 104.258 32.5016 104.118 32.2816C103.986 32.0616 103.92 31.8159 103.92 31.5446V28.1126C103.92 27.8412 103.986 27.5956 104.118 27.3756C104.258 27.1556 104.437 26.9796 104.657 26.8476C104.877 26.7082 105.123 26.6386 105.394 26.6386H108.925C109.204 26.6386 109.453 26.7082 109.673 26.8476C109.893 26.9796 110.069 27.1556 110.201 27.3756C110.333 27.5956 110.399 27.8412 110.399 28.1126V30.4886H105.229V31.5006C105.229 31.5592 105.248 31.6106 105.284 31.6546C105.328 31.6912 105.38 31.7096 105.438 31.7096H110.399V33.0186H105.394ZM105.229 29.2896H109.09V28.1566C109.09 28.0979 109.068 28.0502 109.024 28.0136C108.988 27.9696 108.94 27.9476 108.881 27.9476H105.438C105.38 27.9476 105.328 27.9696 105.284 28.0136C105.248 28.0502 105.229 28.0979 105.229 28.1566V29.2896ZM114.574 33.0186C114.302 33.0186 114.057 32.9526 113.837 32.8206C113.617 32.6812 113.437 32.5016 113.298 32.2816C113.166 32.0616 113.1 31.8159 113.1 31.5446V31.3356H114.409V31.5006C114.409 31.5592 114.427 31.6106 114.464 31.6546C114.508 31.6912 114.559 31.7096 114.618 31.7096H118.061C118.119 31.7096 118.167 31.6912 118.204 31.6546C118.248 31.6106 118.27 31.5592 118.27 31.5006V30.6866C118.27 30.6352 118.248 30.5912 118.204 30.5546C118.167 30.5106 118.119 30.4886 118.061 30.4886H114.574C114.302 30.4886 114.057 30.4226 113.837 30.2906C113.617 30.1512 113.437 29.9716 113.298 29.7516C113.166 29.5316 113.1 29.2859 113.1 29.0146V28.1126C113.1 27.8412 113.166 27.5956 113.298 27.3756C113.437 27.1556 113.617 26.9796 113.837 26.8476C114.057 26.7082 114.302 26.6386 114.574 26.6386H118.105C118.383 26.6386 118.633 26.7082 118.853 26.8476C119.073 26.9796 119.249 27.1556 119.381 27.3756C119.52 27.5956 119.59 27.8412 119.59 28.1126V28.3216H118.27V28.1566C118.27 28.0979 118.248 28.0502 118.204 28.0136C118.167 27.9696 118.119 27.9476 118.061 27.9476H114.618C114.559 27.9476 114.508 27.9696 114.464 28.0136C114.427 28.0502 114.409 28.0979 114.409 28.1566V28.9706C114.409 29.0219 114.427 29.0696 114.464 29.1136C114.508 29.1502 114.559 29.1686 114.618 29.1686H118.105C118.383 29.1686 118.633 29.2382 118.853 29.3776C119.073 29.5096 119.249 29.6856 119.381 29.9056C119.52 30.1256 119.59 30.3712 119.59 30.6426V31.5446C119.59 31.8159 119.52 32.0616 119.381 32.2816C119.249 32.5016 119.073 32.6812 118.853 32.8206C118.633 32.9526 118.383 33.0186 118.105 33.0186H114.574ZM123.53 33.0186C123.258 33.0186 123.009 32.9526 122.782 32.8206C122.562 32.6812 122.386 32.5016 122.254 32.2816C122.122 32.0616 122.056 31.8159 122.056 31.5446V26.6386H123.365V31.5006C123.365 31.5592 123.383 31.6106 123.42 31.6546C123.464 31.6912 123.515 31.7096 123.574 31.7096H127.017C127.075 31.7096 127.123 31.6912 127.16 31.6546C127.204 31.6106 127.226 31.5592 127.226 31.5006V26.6386H128.535V31.5446C128.535 31.8159 128.469 32.0616 128.337 32.2816C128.205 32.5016 128.029 32.6812 127.809 32.8206C127.589 32.9526 127.339 33.0186 127.061 33.0186H123.53ZM132.817 33.0186C132.546 33.0186 132.3 32.9526 132.08 32.8206C131.86 32.6812 131.68 32.5016 131.541 32.2816C131.409 32.0616 131.343 31.8159 131.343 31.5446V24.5376H132.663V31.5006C132.663 31.5592 132.681 31.6106 132.718 31.6546C132.762 31.6912 132.81 31.7096 132.861 31.7096H134.049V33.0186H132.817ZM138.002 33.0186C137.73 33.0186 137.481 32.9526 137.254 32.8206C137.034 32.6812 136.858 32.5016 136.726 32.2816C136.594 32.0616 136.528 31.8159 136.528 31.5446V24.6476H137.837V26.6386H140.389V27.9476H137.837V31.5006C137.837 31.5592 137.855 31.6106 137.892 31.6546C137.936 31.6912 137.987 31.7096 138.046 31.7096H140.389V33.0186H138.002Z" fill="#D9D9D9"/>
</svg>
