<svg width="41" height="40" viewBox="0 0 41 40" fill="none" xmlns="http://www.w3.org/2000/svg">
<g id="mdi-light:rss">
<rect width="40" height="40" transform="translate(0.969177)" fill="#0A0E29"/>
<path id="Vector" d="M9.30252 26.6667C10.6286 26.6667 11.9004 27.1934 12.8381 28.1311C13.7757 29.0688 14.3025 30.3406 14.3025 31.6667C14.3025 32.9927 13.7757 34.2645 12.8381 35.2022C11.9004 36.1399 10.6286 36.6667 9.30252 36.6667C7.97644 36.6667 6.70467 36.1399 5.76699 35.2022C4.82931 34.2645 4.30252 32.9927 4.30252 31.6667C4.30252 30.3406 4.82931 29.0688 5.76699 28.1311C6.70467 27.1934 7.97644 26.6667 9.30252 26.6667ZM9.30252 28.3333C8.41847 28.3333 7.57062 28.6845 6.9455 29.3096C6.32038 29.9348 5.96919 30.7826 5.96919 31.6667C5.96919 32.5507 6.32038 33.3986 6.9455 34.0237C7.57062 34.6488 8.41847 35 9.30252 35C10.1866 35 11.0344 34.6488 11.6595 34.0237C12.2847 33.3986 12.6359 32.5507 12.6359 31.6667C12.6359 30.7826 12.2847 29.9348 11.6595 29.3096C11.0344 28.6845 10.1866 28.3333 9.30252 28.3333ZM4.30252 18.3333C14.4359 18.3333 22.6359 26.5333 22.6359 36.6667H20.9692C20.9692 34.478 20.5381 32.3107 19.7005 30.2886C18.8629 28.2665 17.6353 26.4292 16.0876 24.8816C14.54 23.3339 12.7027 22.1063 10.6806 21.2687C8.65848 20.4311 6.49122 20 4.30252 20V18.3333ZM4.30252 11.6667C10.9329 11.6667 17.2918 14.3006 21.9802 18.989C26.6686 23.6774 29.3025 30.0363 29.3025 36.6667H27.6359C27.6359 30.4783 25.1775 24.5434 20.8017 20.1675C16.4258 15.7917 10.4909 13.3333 4.30252 13.3333V11.6667ZM4.30252 5C21.8025 5 35.9692 19.1667 35.9692 36.6667H34.3025C34.3025 28.7102 31.1418 21.0796 25.5157 15.4535C19.8896 9.82737 12.259 6.66667 4.30252 6.66667V5Z" fill="#C23366"/>
</g>
</svg>
