<svg width="40" height="41" viewBox="0 0 40 41" fill="none" xmlns="http://www.w3.org/2000/svg">
<g id="mdi-light:printer">
<path id="Vector" d="M28.3333 7V15.3333H30C31.3261 15.3333 32.5979 15.8601 33.5355 16.7978C34.4732 17.7355 35 19.0073 35 20.3333V28.6667H28.3333V35.3333H10V28.6667H3.33334V20.3333C3.33334 19.0073 3.86013 17.7355 4.79781 16.7978C5.73549 15.8601 7.00726 15.3333 8.33334 15.3333H10V7H28.3333ZM30 22C29.558 22 29.1341 21.8244 28.8215 21.5118C28.5089 21.1993 28.3333 20.7754 28.3333 20.3333C28.3333 19.8913 28.5089 19.4674 28.8215 19.1548C29.1341 18.8423 29.558 18.6667 30 18.6667C30.442 18.6667 30.866 18.8423 31.1785 19.1548C31.4911 19.4674 31.6667 19.8913 31.6667 20.3333C31.6667 20.7754 31.4911 21.1993 31.1785 21.5118C30.866 21.8244 30.442 22 30 22ZM5.00001 20.3333V27H10V23.6667H28.3333V27H33.3333V20.3333C33.3333 19.4493 32.9822 18.6014 32.357 17.9763C31.7319 17.3512 30.8841 17 30 17H8.33334C7.44929 17 6.60144 17.3512 5.97632 17.9763C5.3512 18.6014 5.00001 19.4493 5.00001 20.3333ZM26.6667 33.6667V25.3333H11.6667V33.6667H26.6667ZM11.6667 8.66667V15.3333H26.6667V8.66667H11.6667Z" fill="#C23366"/>
</g>
</svg>
