<svg width="40" height="40" viewBox="0 0 40 40" fill="none" xmlns="http://www.w3.org/2000/svg">
<g id="mdi-light:cart">
<path id="Vector" d="M26.6667 30C27.5507 30 28.3986 30.3512 29.0237 30.9763C29.6488 31.6014 30 32.4493 30 33.3333C30 34.2174 29.6488 35.0652 29.0237 35.6904C28.3986 36.3155 27.5507 36.6667 26.6667 36.6667C25.7826 36.6667 24.9348 36.3155 24.3096 35.6904C23.6845 35.0652 23.3333 34.2174 23.3333 33.3333C23.3333 32.4493 23.6845 31.6014 24.3096 30.9763C24.9348 30.3512 25.7826 30 26.6667 30ZM26.6667 31.6667C26.2246 31.6667 25.8007 31.8423 25.4881 32.1548C25.1756 32.4674 25 32.8913 25 33.3333C25 33.7754 25.1756 34.1993 25.4881 34.5118C25.8007 34.8244 26.2246 35 26.6667 35C27.1087 35 27.5326 34.8244 27.8452 34.5118C28.1577 34.1993 28.3333 33.7754 28.3333 33.3333C28.3333 32.8913 28.1577 32.4674 27.8452 32.1548C27.5326 31.8423 27.1087 31.6667 26.6667 31.6667ZM11.6667 30C12.5507 30 13.3986 30.3512 14.0237 30.9763C14.6488 31.6014 15 32.4493 15 33.3333C15 34.2174 14.6488 35.0652 14.0237 35.6904C13.3986 36.3155 12.5507 36.6667 11.6667 36.6667C10.7826 36.6667 9.93475 36.3155 9.30963 35.6904C8.68451 35.0652 8.33332 34.2174 8.33332 33.3333C8.33332 32.4493 8.68451 31.6014 9.30963 30.9763C9.93475 30.3512 10.7826 30 11.6667 30ZM11.6667 31.6667C11.2246 31.6667 10.8007 31.8423 10.4881 32.1548C10.1756 32.4674 9.99999 32.8913 9.99999 33.3333C9.99999 33.7754 10.1756 34.1993 10.4881 34.5118C10.8007 34.8244 11.2246 35 11.6667 35C12.1087 35 12.5326 34.8244 12.8452 34.5118C13.1577 34.1993 13.3333 33.7754 13.3333 33.3333C13.3333 32.8913 13.1577 32.4674 12.8452 32.1548C12.5326 31.8423 12.1087 31.6667 11.6667 31.6667ZM30 10H7.11666L11.3667 20H25C25.55 20 26.0333 19.7333 26.3333 19.3333L31.3333 12.6667C31.55 12.3833 31.6667 12.0333 31.6667 11.6667C31.6667 11.2246 31.4911 10.8007 31.1785 10.4882C30.8659 10.1756 30.442 10 30 10ZM25 21.6667H11.45L10.1667 24.2667L9.99999 25C9.99999 25.442 10.1756 25.866 10.4881 26.1785C10.8007 26.4911 11.2246 26.6667 11.6667 26.6667H30V28.3333H11.6667C10.7826 28.3333 9.93475 27.9821 9.30963 27.357C8.68451 26.7319 8.33332 25.8841 8.33332 25C8.33283 24.4345 8.47621 23.8782 8.74999 23.3833L9.94999 20.9333L3.89999 6.66667H1.66666V5H4.99999L6.41666 8.33333H30C30.884 8.33333 31.7319 8.68452 32.357 9.30964C32.9821 9.93477 33.3333 10.7826 33.3333 11.6667C33.3333 12.5 33.05 13.2 32.5833 13.7667L27.7333 20.25C27.1333 21.1 26.1333 21.6667 25 21.6667Z" fill="#C23366"/>
</g>
</svg>
